PathFileType	4	(X/Y/Z)	C:/Users/beibeiliu/ov580/test_trc/User1\sequence.20_training_dense_left.trc
DataRate	CameraRate	NumFrames	NumMarkers	Units	OrigDataRate	OrigDataStartFrame	OrigNumFrames
120	120	9	19	mm	120	1	263
Frame#	Time	ThumbCMC			ThumbMCP			ThumbIP			ThumbTip			IndexMCP			IndexPIP			IndexTip			MiddleMCP			MiddlePIP			MiddleTip			RingMCP			RingPIP			RingTip			PinkyMCP			PinkyPIP			PinkyTip			BackHand1			BackHand2			BackHand3	
		X0	Y0	Z0	X1	Y1	Z1	X2	Y2	Z2	X3	Y3	Z3	X4	Y4	Z4	X5	Y5	Z5	X6	Y6	Z6	X7	Y7	Z7	X8	Y8	Z8	X9	Y9	Z9	X10	Y10	Z10	X11	Y11	Z11	X12	Y12	Z12	X13	Y13	Z13	X14	Y14	Z14	X15	Y15	Z15	X16	Y16	Z16	X17	Y17	Z17	X18	Y18	Z18	
0	0	-161.907	-0.348717	59.1708	-140.765	-16.6717	53.1313	-115.729	-23.9234	43.7435	-94.6263	-30.6353	38.9755	-169.163	-11.253	-27.4701	-163.19	-14.789	-51.1827	-159.639	-14.1223	-81.3233	-193.393	-4.67645	-40.8251	-192.139	-7.20841	-68.3268	-193.343	-10.1075	-98.0739	-217.86	-5.58799	-38.3409	-219.385	-6.70655	-61.0176	-222.407	-10.9398	-86.309	-252.088	-12.1436	-18.2175	-259.389	-15.9579	-32.389	-265.616	-14.9789	-57.7658	-219.726	13.1449	11.7852	-224.362	27.5732	47.4621	-188.196	16.7248	31.8788	
1	0.00833333	-164.133	-1.10137	56.4785	-140.67	-15.7812	51.6158	-120.761	-25.3373	40.2066	-96.4104	-31.0607	38.425	-170.543	-10.2846	-29.3485	-165.21	-12.7209	-55.897	-162.738	-13.4314	-82.9975	-193.773	-4.08496	-43.5633	-192.686	-6.4062	-66.1541	-194.906	-9.30675	-98.5644	-223.484	-3.63914	-36.9624	-219.798	-6.84531	-61.6822	-222.877	-9.60829	-91.5676	-249.688	-11.4484	-15.1785	-263.038	-15.9465	-36.8437	-269.09	-12.4718	-55.3734	-223.862	13.6883	14.9962	-224.254	28.0476	44.4004	-188.65	15.8787	30.2271	
2	0.0166667	-165.695	-0.148107	58.1295	-144.392	-15.0432	52.8516	-116.946	-24.7777	39.6804	-101.522	-30.6043	39.4493	-166.071	-10.5906	-32.1048	-166.748	-12.3724	-53.9528	-160.579	-13.4472	-78.5485	-197.394	-2.08205	-40.5915	-194.167	-5.82207	-67.5516	-193.276	-8.94237	-96.7723	-219.441	-3.5827	-34.814	-221.12	-6.99398	-66.2241	-224.802	-9.78545	-90.6618	-252.489	-9.82259	-16.2483	-263.499	-15.1913	-34.4198	-269.322	-14.3934	-55.8365	-225.257	15.2166	14.1227	-224.888	27.1542	44.5866	-191.547	17.5442	32.6171	
3	0.025	-161.615	-0.565065	54.6224	-143.544	-15.7028	50.069	-119.721	-24.5693	40.1851	-102.014	-30.1038	41.0385	-169.23	-9.97776	-31.7842	-162.359	-11.9048	-56.4892	-166.552	-13.3481	-78.5587	-195.454	-2.03337	-38.8519	-194.594	-5.17484	-69.5549	-196.272	-8.15149	-97.6202	-219.235	-3.1463	-37.2536	-222.236	-5.86741	-64.7857	-222.881	-9.47188	-85.6141	-248.012	-10.1553	-15.872	-259.252	-13.9591	-35.6382	-269.314	-11.4167	-55.5991	-223.547	13.7176	11.9915	-228.469	28.3344	43.0051	-189.742	17.3972	30.0183	
4	0.0333333	-167.278	0.343727	57.5109	-141.963	-15.4495	49.7296	-118.743	-23.2224	43.3426	-99.2538	-29.6287	41.6594	-167.36	-8.62549	-27.6575	-165.172	-10.5531	-51.4466	-162.349	-11.9549	-77.0601	-193.074	-1.13873	-44.0901	-192.161	-5.64887	-71.1059	-194.032	-7.06524	-95.2849	-224.496	-2.48815	-36.2615	-221.264	-5.00178	-65.9091	-225.286	-9.09197	-89.9603	-254.356	-9.59898	-16.4696	-258.057	-13.7648	-34.5603	-269.685	-10.8537	-55.9609	-224.429	16.3026	12.5142	-222.963	28.3828	42.8008	-191.059	17.0684	30.5221	
5	0.0416667	-165.808	0.0192362	53.8882	-143.445	-14.3346	49.9736	-118.909	-23.5212	39.0277	-98.4266	-28.9525	41.1847	-166.895	-8.00358	-26.3374	-167.481	-9.72529	-56.0635	-163.223	-11.4751	-77.528	-197.343	-0.520302	-43.2902	-192.961	-3.57076	-68.3296	-196.958	-5.50692	-96.7193	-225.045	-1.30737	-36.4829	-224.503	-3.83033	-65.7442	-226.899	-7.59833	-87.0235	-251.997	-7.63552	-17.2177	-257.762	-12.2718	-32.9371	-269.912	-11.9937	-55.2847	-221.591	17.2103	16.3848	-225.76	29.2401	44.6361	-188.082	17.6434	32.4162	
6	0.05	-163.791	2.01467	54.6384	-141.273	-12.6923	50.4093	-122.529	-22.5749	42.4056	-101.447	-27.4468	40.4111	-170.148	-6.03423	-32.1633	-164.634	-8.92755	-51.8262	-165.417	-9.78665	-78.5593	-198.084	1.32818	-44.1256	-192.812	-1.91303	-66.3243	-194.311	-2.70684	-98.5359	-220.296	0.0279858	-34.4362	-223.139	-2.28885	-63.2331	-222.679	-5.46643	-91.2018	-254.286	-6.56812	-17.0356	-262.38	-11.5895	-37.6402	-270.325	-10.0794	-57.5662	-221.203	16.4757	16.9541	-227.754	31.2758	45.6645	-191.382	21.5871	32.5687	
7	0.0583333	-165.444	4.54218	58.7988	-143.886	-11.7811	52.7366	-117.73	-19.9699	41.3114	-99.8396	-24.6408	43.5372	-168.869	-4.17045	-30.9937	-163.141	-7.63053	-56.6561	-166.033	-7.63717	-78.8288	-195.957	2.23595	-44.0351	-193.492	-0.822865	-67.6414	-190.454	-2.47213	-101.175	-219.649	1.66266	-36.2418	-225.052	-0.684446	-64.3119	-224.97	-4.66427	-88.1662	-254.568	-4.91493	-20.1931	-260.002	-9.47186	-35.1525	-270.957	-9.05411	-60.6561	-226.3	19.0536	15.6465	-227.527	31.8081	43.4979	-188.242	22.8448	31.8095	
8	0.0666667	-165.351	3.42472	56.4441	-143.422	-12.2575	49.9852	-122.12	-20.4929	40.4288	-98.5198	-24.9585	39.1669	-168.976	-3.06057	-28.7628	-164.319	-5.62706	-57.4453	-160.355	-6.7471	-82.4776	-195.285	4.20615	-40.6005	-195.441	1.23802	-71.442	-193.013	-1.18591	-98.8752	-221.409	3.23693	-38.1113	-224.121	0.942192	-63.9094	-221.409	-3.80882	-90.8098	-253.323	-3.52089	-15.9861	-259.349	-8.32774	-34.0576	-270.75	-6.29899	-57.7663	-223.562	18.6327	14.5776	-228.767	32.4562	46.669	-190.755	21.8546	33.2452	
